# xmcd
# Track frame offsets:
# 150
# 9026
# 22792
# 33870
# 43131
# 53385
# 65308
# 75173
# 89681
# 99840
# 112764
#
# Disc length: 1741 seconds
# Revision: 0
# Processed by: cddbd v1.5.2PL0 Copyright (c) Steve Scherf et al.
# Submitted via: VisiTrax 2.11.3.279 - For more info visit www.synapsa.com
#
DISCID=6206cb0b
DTITLE=Connie Smith - The Lost Tapes
DYEAR=2015
DGENRE=
TTITLE0=Just One Time
TTITLE1=I Never Once Stopped Loving You
TTITLE2=Louisiana Man
TTITLE3=Cincinnati Ohio
TTITLE4=Just For What I Am
TTITLE5=Once A Day
TTITLE6=If It Ain´t Love
TTITLE7=Long Black Limousine
TTITLE8=The Race Is On
TTITLE9=Amazing Grace
TTITLE10=How Great Thou Art
EXTD=
EXTT0=
EXTT1=
EXTT2=
EXTT3=
EXTT4=
EXTT5=
EXTT6=
EXTT7=
EXTT8=
EXTT9=
EXTT10=
PLAYORDER=
